<svg width="104" height="104" viewBox="0 0 104 104" fill="none" xmlns="http://www.w3.org/2000/svg">
<g filter="url(#filter0_d_1541_11376)">
<rect x="20" y="20" width="64" height="64" rx="16.875" fill="white"/>
<path d="M59.9225 45.8831C60.102 45.8873 60.2805 45.8549 60.4469 45.788C60.6134 45.721 60.7643 45.6208 60.8904 45.4937C61.0186 45.3685 61.1195 45.2185 61.187 45.0529C61.2545 44.8874 61.2871 44.7098 61.2827 44.5312C61.287 44.3526 61.2543 44.1751 61.1868 44.0095C61.1194 43.844 61.0185 43.694 60.8904 43.5687C60.7641 43.4418 60.6132 43.3419 60.4467 43.2751C60.2803 43.2082 60.1019 43.1759 59.9225 43.18C59.743 43.1759 59.5646 43.2082 59.3982 43.2751C59.2317 43.3419 59.0808 43.4418 58.9546 43.5687C58.8266 43.694 58.7258 43.8441 58.6585 44.0096C58.5911 44.1752 58.5586 44.3527 58.5629 44.5312C58.5584 44.7097 58.5909 44.8873 58.6582 45.0529C58.7256 45.2184 58.8265 45.3685 58.9546 45.4937C59.0806 45.6208 59.2315 45.721 59.398 45.788C59.5644 45.8549 59.7429 45.8873 59.9225 45.8831V45.8831Z" fill="#A1ED00"/>
<path d="M35.1134 46.3301C33.7909 46.3316 32.523 46.8548 31.5878 47.7847C30.6527 48.7146 30.1266 49.9754 30.125 51.2905V53.2894C30.1266 54.6045 30.6527 55.8653 31.5878 56.7952C32.523 57.7251 33.7909 58.2483 35.1134 58.2498C36.4359 58.2483 37.7038 57.7251 38.639 56.7952C39.5742 55.8653 40.1003 54.6045 40.1018 53.2894V51.2905C40.1003 49.9754 39.5742 48.7146 38.639 47.7847C37.7038 46.8548 36.4359 46.3316 35.1134 46.3301V46.3301ZM37.8682 53.2894C37.8682 54.0159 37.578 54.7127 37.0614 55.2264C36.5447 55.7402 35.844 56.0288 35.1134 56.0288C34.3828 56.0288 33.6821 55.7402 33.1655 55.2264C32.6488 54.7127 32.3586 54.0159 32.3586 53.2894V51.2905C32.3586 50.564 32.6488 49.8672 33.1655 49.3535C33.6821 48.8397 34.3828 48.5511 35.1134 48.5511C35.844 48.5511 36.5447 48.8397 37.0614 49.3535C37.578 49.8672 37.8682 50.564 37.8682 51.2905V53.2894Z" fill="black"/>
<path d="M46.8029 46.3301C44.0525 46.3301 41.8145 48.5356 41.8145 51.246V57.0282C41.8145 57.3228 41.9321 57.6052 42.1416 57.8135C42.351 58.0218 42.6351 58.1388 42.9313 58.1388C43.2275 58.1388 43.5115 58.0218 43.721 57.8135C43.9304 57.6052 44.0481 57.3228 44.0481 57.0282V51.246C44.0481 49.7601 45.284 48.5511 46.8029 48.5511C48.3217 48.5511 49.5577 49.7601 49.5577 51.246V57.0282C49.5577 57.3228 49.6753 57.6052 49.8848 57.8135C50.0942 58.0218 50.3783 58.1388 50.6745 58.1388C50.9707 58.1388 51.2547 58.0218 51.4642 57.8135C51.6736 57.6052 51.7913 57.3228 51.7913 57.0282V51.246C51.7913 48.5356 49.5532 46.3301 46.8029 46.3301Z" fill="black"/>
<path d="M72.912 55.9433C71.7028 55.6819 70.8049 55.0741 70.245 54.1361C69.9882 53.7079 69.8149 53.2355 69.7342 52.7435V48.5516H72.6752C72.9714 48.5516 73.2554 48.4345 73.4649 48.2263C73.6743 48.018 73.792 47.7355 73.792 47.441C73.792 47.1465 73.6743 46.864 73.4649 46.6558C73.2554 46.4475 72.9714 46.3305 72.6752 46.3305H69.7357V42.9855C69.7357 42.691 69.6181 42.4085 69.4086 42.2003C69.1992 41.992 68.9151 41.875 68.6189 41.875C68.3227 41.875 68.0387 41.992 67.8292 42.2003C67.6198 42.4085 67.5021 42.691 67.5021 42.9855V46.3305H64.5024C64.2062 46.3305 63.9221 46.4475 63.7127 46.6558C63.5032 46.864 63.3856 47.1465 63.3856 47.441C63.3856 47.7355 63.5032 48.018 63.7127 48.2263C63.9221 48.4345 64.2062 48.5516 64.5024 48.5516H67.5021V52.6605C67.5013 53.5144 67.1599 54.3331 66.5526 54.9369C65.9454 55.5407 65.1221 55.8803 64.2634 55.8811C63.4046 55.8803 62.5813 55.5407 61.9741 54.9369C61.3669 54.3331 61.0254 53.5144 61.0246 52.6605V51.624C61.0245 51.5802 61.0218 51.5365 61.0164 51.493V47.9178C61.0164 47.6233 60.8988 47.3408 60.6893 47.1325C60.4799 46.9243 60.1958 46.8073 59.8996 46.8073C59.6034 46.8073 59.3194 46.9243 59.1099 47.1325C58.9005 47.3408 58.7828 47.6233 58.7828 47.9178V52.2533C58.7828 52.3274 58.7828 52.6798 58.7828 52.7435C58.7396 53.9354 57.3853 55.7278 56.0548 55.9307C55.9098 55.9528 55.7706 56.0031 55.6451 56.0788C55.5197 56.1544 55.4105 56.2539 55.3237 56.3716C55.2369 56.4892 55.1743 56.6227 55.1394 56.7644C55.1045 56.9061 55.0981 57.0532 55.1204 57.1974C55.1609 57.459 55.294 57.6977 55.4958 57.8704C55.6975 58.043 55.9547 58.1384 56.2209 58.1392C56.2782 58.139 56.3354 58.1348 56.3921 58.1266C57.762 57.9163 58.989 56.9931 59.8341 55.8507C60.3406 56.5474 61.0059 57.1147 61.7756 57.506C62.5453 57.8974 63.3974 58.1017 64.2619 58.1022C65.1305 58.1018 65.9866 57.8956 66.7592 57.5008C67.5318 57.1059 68.1986 56.5337 68.7045 55.8315C69.4037 56.7458 70.5584 57.7083 72.4384 58.114C72.5165 58.1307 72.5961 58.1391 72.6759 58.1392C72.9309 58.139 73.1781 58.0521 73.3765 57.8929C73.5749 57.7337 73.7126 57.5118 73.7667 57.2641C73.7978 57.1216 73.8003 56.9743 73.7742 56.8308C73.7481 56.6873 73.6938 56.5503 73.6144 56.4276C73.5351 56.305 73.4322 56.1991 73.3116 56.116C73.1911 56.0329 73.0553 55.9742 72.912 55.9433V55.9433Z" fill="black"/>
<path d="M59.9225 45.8831C60.102 45.8873 60.2805 45.8549 60.4469 45.788C60.6134 45.721 60.7643 45.6208 60.8904 45.4937C61.0186 45.3685 61.1195 45.2185 61.187 45.0529C61.2545 44.8874 61.2871 44.7098 61.2827 44.5312C61.287 44.3526 61.2543 44.1751 61.1868 44.0095C61.1194 43.844 61.0185 43.694 60.8904 43.5687C60.7641 43.4418 60.6132 43.3419 60.4467 43.2751C60.2803 43.2082 60.1019 43.1759 59.9225 43.18C59.743 43.1759 59.5646 43.2082 59.3982 43.2751C59.2317 43.3419 59.0808 43.4418 58.9546 43.5687C58.8266 43.694 58.7258 43.8441 58.6585 44.0096C58.5911 44.1752 58.5586 44.3527 58.5629 44.5312C58.5584 44.7097 58.5909 44.8873 58.6582 45.0529C58.7256 45.2184 58.8265 45.3685 58.9546 45.4937C59.0806 45.6208 59.2315 45.721 59.398 45.788C59.5644 45.8549 59.7429 45.8873 59.9225 45.8831V45.8831Z" fill="#A1ED00"/>
<path d="M35.1134 46.3301C33.7909 46.3316 32.523 46.8548 31.5878 47.7847C30.6527 48.7146 30.1266 49.9754 30.125 51.2905V53.2894C30.1266 54.6045 30.6527 55.8653 31.5878 56.7952C32.523 57.7251 33.7909 58.2483 35.1134 58.2498C36.4359 58.2483 37.7038 57.7251 38.639 56.7952C39.5742 55.8653 40.1003 54.6045 40.1018 53.2894V51.2905C40.1003 49.9754 39.5742 48.7146 38.639 47.7847C37.7038 46.8548 36.4359 46.3316 35.1134 46.3301V46.3301ZM37.8682 53.2894C37.8682 54.0159 37.578 54.7127 37.0614 55.2264C36.5447 55.7402 35.844 56.0288 35.1134 56.0288C34.3828 56.0288 33.6821 55.7402 33.1655 55.2264C32.6488 54.7127 32.3586 54.0159 32.3586 53.2894V51.2905C32.3586 50.564 32.6488 49.8672 33.1655 49.3535C33.6821 48.8397 34.3828 48.5511 35.1134 48.5511C35.844 48.5511 36.5447 48.8397 37.0614 49.3535C37.578 49.8672 37.8682 50.564 37.8682 51.2905V53.2894Z" fill="black"/>
<path d="M46.8029 46.3301C44.0525 46.3301 41.8145 48.5356 41.8145 51.246V57.0282C41.8145 57.3228 41.9321 57.6052 42.1416 57.8135C42.351 58.0218 42.6351 58.1388 42.9313 58.1388C43.2275 58.1388 43.5115 58.0218 43.721 57.8135C43.9304 57.6052 44.0481 57.3228 44.0481 57.0282V51.246C44.0481 49.7601 45.284 48.5511 46.8029 48.5511C48.3217 48.5511 49.5577 49.7601 49.5577 51.246V57.0282C49.5577 57.3228 49.6753 57.6052 49.8848 57.8135C50.0942 58.0218 50.3783 58.1388 50.6745 58.1388C50.9707 58.1388 51.2547 58.0218 51.4642 57.8135C51.6736 57.6052 51.7913 57.3228 51.7913 57.0282V51.246C51.7913 48.5356 49.5532 46.3301 46.8029 46.3301Z" fill="black"/>
<path d="M72.912 55.9433C71.7028 55.6819 70.8049 55.0741 70.245 54.1361C69.9882 53.7079 69.8149 53.2355 69.7342 52.7435V48.5516H72.6752C72.9714 48.5516 73.2554 48.4345 73.4649 48.2263C73.6743 48.018 73.792 47.7355 73.792 47.441C73.792 47.1465 73.6743 46.864 73.4649 46.6558C73.2554 46.4475 72.9714 46.3305 72.6752 46.3305H69.7357V42.9855C69.7357 42.691 69.6181 42.4085 69.4086 42.2003C69.1992 41.992 68.9151 41.875 68.6189 41.875C68.3227 41.875 68.0387 41.992 67.8292 42.2003C67.6198 42.4085 67.5021 42.691 67.5021 42.9855V46.3305H64.5024C64.2062 46.3305 63.9221 46.4475 63.7127 46.6558C63.5032 46.864 63.3856 47.1465 63.3856 47.441C63.3856 47.7355 63.5032 48.018 63.7127 48.2263C63.9221 48.4345 64.2062 48.5516 64.5024 48.5516H67.5021V52.6605C67.5013 53.5144 67.1599 54.3331 66.5526 54.9369C65.9454 55.5407 65.1221 55.8803 64.2634 55.8811C63.4046 55.8803 62.5813 55.5407 61.9741 54.9369C61.3669 54.3331 61.0254 53.5144 61.0246 52.6605V51.624C61.0245 51.5802 61.0218 51.5365 61.0164 51.493V47.9178C61.0164 47.6233 60.8988 47.3408 60.6893 47.1325C60.4799 46.9243 60.1958 46.8073 59.8996 46.8073C59.6034 46.8073 59.3194 46.9243 59.1099 47.1325C58.9005 47.3408 58.7828 47.6233 58.7828 47.9178V52.2533C58.7828 52.3274 58.7828 52.6798 58.7828 52.7435C58.7396 53.9354 57.3853 55.7278 56.0548 55.9307C55.9098 55.9528 55.7706 56.0031 55.6451 56.0788C55.5197 56.1544 55.4105 56.2539 55.3237 56.3716C55.2369 56.4892 55.1743 56.6227 55.1394 56.7644C55.1045 56.9061 55.0981 57.0532 55.1204 57.1974C55.1609 57.459 55.294 57.6977 55.4958 57.8704C55.6975 58.043 55.9547 58.1384 56.2209 58.1392C56.2782 58.139 56.3354 58.1348 56.3921 58.1266C57.762 57.9163 58.989 56.9931 59.8341 55.8507C60.3406 56.5474 61.0059 57.1147 61.7756 57.506C62.5453 57.8974 63.3974 58.1017 64.2619 58.1022C65.1305 58.1018 65.9866 57.8956 66.7592 57.5008C67.5318 57.1059 68.1986 56.5337 68.7045 55.8315C69.4037 56.7458 70.5584 57.7083 72.4384 58.114C72.5165 58.1307 72.5961 58.1391 72.6759 58.1392C72.9309 58.139 73.1781 58.0521 73.3765 57.8929C73.5749 57.7337 73.7126 57.5118 73.7667 57.2641C73.7978 57.1216 73.8003 56.9743 73.7742 56.8308C73.7481 56.6873 73.6938 56.5503 73.6144 56.4276C73.5351 56.305 73.4322 56.1991 73.3116 56.116C73.1911 56.0329 73.0553 55.9742 72.912 55.9433V55.9433Z" fill="black"/>
</g>
<defs>
<filter id="filter0_d_1541_11376" x="0" y="0" width="104" height="104" filterUnits="userSpaceOnUse" color-interpolation-filters="sRGB">
<feFlood flood-opacity="0" result="BackgroundImageFix"/>
<feColorMatrix in="SourceAlpha" type="matrix" values="0 0 0 0 0 0 0 0 0 0 0 0 0 0 0 0 0 0 127 0" result="hardAlpha"/>
<feOffset/>
<feGaussianBlur stdDeviation="10"/>
<feComposite in2="hardAlpha" operator="out"/>
<feColorMatrix type="matrix" values="0 0 0 0 0.516667 0 0 0 0 0.516667 0 0 0 0 0.516667 0 0 0 0.2 0"/>
<feBlend mode="normal" in2="BackgroundImageFix" result="effect1_dropShadow_1541_11376"/>
<feBlend mode="normal" in="SourceGraphic" in2="effect1_dropShadow_1541_11376" result="shape"/>
</filter>
</defs>
</svg>
